<svg width="24" height="24" viewBox="0 0 24 24" fill="none" xmlns="http://www.w3.org/2000/svg">
<path d="M7 4C7 3.44772 7.44772 3 8 3H22C22.5523 3 23 3.44772 23 4C23 4.55228 22.5523 5 22 5H8C7.44772 5 7 4.55228 7 4Z" fill="#9A9DAB"/>
<path d="M7 12C7 11.4477 7.44772 11 8 11H22C22.5523 11 23 11.4477 23 12C23 12.5523 22.5523 13 22 13H8C7.44772 13 7 12.5523 7 12Z" fill="#9A9DAB"/>
<path d="M7 20C7 19.4477 7.44772 19 8 19H22C22.5523 19 23 19.4477 23 20C23 20.5523 22.5523 21 22 21H8C7.44772 21 7 20.5523 7 20Z" fill="#9A9DAB"/>
<path d="M1 4C1 3.44772 1.44772 3 2 3H4C4.55228 3 5 3.44772 5 4C5 4.55228 4.55228 5 4 5H2C1.44772 5 1 4.55228 1 4Z" fill="#9A9DAB"/>
<path d="M1 12C1 11.4477 1.44772 11 2 11H4C4.55228 11 5 11.4477 5 12C5 12.5523 4.55228 13 4 13H2C1.44772 13 1 12.5523 1 12Z" fill="#9A9DAB"/>
<path d="M1 20C1 19.4477 1.44772 19 2 19H4C4.55228 19 5 19.4477 5 20C5 20.5523 4.55228 21 4 21H2C1.44772 21 1 20.5523 1 20Z" fill="#9A9DAB"/>
</svg>
